<svg width="470" height="227" viewBox="0 0 470 227" fill="none" xmlns="http://www.w3.org/2000/svg">
<path d="M212.4 226.501C211.572 226.501 210.9 225.829 210.9 225.001L210.9 199.501C210.9 166.364 237.763 139.501 270.9 139.501L326.1 139.501C326.929 139.501 327.6 140.173 327.6 141.001L327.6 166.501C327.6 199.638 300.737 226.501 267.6 226.501L212.4 226.501Z" fill="#5F62A9"/>
<path d="M115.2 87.0005C116.029 87.0005 116.7 86.3289 116.7 85.5005L116.7 60.0005C116.7 26.8634 89.8373 0.000488602 56.7002 0.000488997L1.5002 0.000489655C0.671767 0.000489665 0.000189705 0.672059 0.000189715 1.50049L0.000190019 27.0005C0.000190415 60.1376 26.8631 87.0005 60.0002 87.0005L115.2 87.0005Z" fill="#5F62A9"/>
<path d="M71.7002 226.501C70.8718 226.501 70.2002 225.829 70.2002 225.001L70.2002 199.501C70.2002 166.364 97.0631 139.501 130.2 139.501L185.4 139.501C186.229 139.501 186.9 140.173 186.9 141.001L186.9 166.501C186.9 199.638 160.037 226.501 126.9 226.501L71.7002 226.501Z" fill="#5F62A9"/>
<path d="M255.9 87.0005C256.729 87.0005 257.4 86.3289 257.4 85.5005L257.4 60.0005C257.4 26.8634 230.537 0.000488602 197.4 0.000488997L142.2 0.000489655C141.372 0.000489665 140.7 0.672059 140.7 1.50049L140.7 27.0005C140.7 60.1376 167.563 87.0005 200.7 87.0005L255.9 87.0005Z" fill="#5F62A9"/>
<line x1="653" y1="115" x2="70" y2="115" stroke="#363859" stroke-width="24" stroke-linecap="round"/>
</svg>
