<svg width="112" height="112" viewBox="0 0 112 112" fill="none" xmlns="http://www.w3.org/2000/svg">
<g filter="url(#filter0_d_295_3657)">
<circle cx="56" cy="52" r="50" fill="#5F62A9"/>
</g>
<path d="M52.5314 25.2144C51.2484 25.2144 50.1516 26.1213 49.9052 27.3802L49.0106 31.9736C46.8121 32.8049 44.7793 33.9663 42.9942 35.4316L38.5892 33.9145C37.3759 33.4966 36.0408 33.9984 35.398 35.1073L31.3592 42.1071C30.719 43.2188 30.952 44.63 31.919 45.4711L35.4503 48.542C35.2666 49.6706 35.1469 50.8196 35.1469 52.0001C35.1469 53.1806 35.2666 54.3295 35.4503 55.4581L31.919 58.5291C30.952 59.3702 30.719 60.7814 31.3592 61.893L35.398 68.8929C36.0382 70.0045 37.3759 70.5061 38.5892 70.0909L42.9942 68.5737C44.7787 70.0381 46.8131 71.1956 49.0106 72.0266L49.9052 76.6199C50.1516 77.8788 51.2484 78.7858 52.5314 78.7858H60.6194C61.9025 78.7858 62.9993 77.8788 63.2457 76.6199L64.1403 72.0266C66.3388 71.1952 68.3716 70.0338 70.1566 68.5685L74.5616 70.0857C75.775 70.5035 77.11 70.0045 77.7529 68.8929L81.7917 61.8878C82.4319 60.7762 82.1989 59.3702 81.2319 58.5291L77.7006 55.4581C77.8842 54.3295 78.004 53.1806 78.004 52.0001C78.004 50.8196 77.8842 49.6706 77.7006 48.542L81.2319 45.4711C82.1989 44.63 82.4319 43.2188 81.7917 42.1071L77.7529 35.1073C77.1127 33.9957 75.775 33.4941 74.5616 33.9092L70.1566 35.4264C68.3722 33.962 66.3378 32.8045 64.1403 31.9736L63.2457 27.3802C62.9993 26.1213 61.9025 25.2144 60.6194 25.2144H52.5314ZM56.5754 41.2858C62.4924 41.2858 67.2897 46.0831 67.2897 52.0001C67.2897 57.917 62.4924 62.7144 56.5754 62.7144C50.6585 62.7144 45.8611 57.917 45.8611 52.0001C45.8611 46.0831 50.6585 41.2858 56.5754 41.2858Z" fill="white"/>
<defs>
<filter id="filter0_d_295_3657" x="0" y="0" width="112" height="112" filterUnits="userSpaceOnUse" color-interpolation-filters="sRGB">
<feFlood flood-opacity="0" result="BackgroundImageFix"/>
<feColorMatrix in="SourceAlpha" type="matrix" values="0 0 0 0 0 0 0 0 0 0 0 0 0 0 0 0 0 0 127 0" result="hardAlpha"/>
<feOffset dy="4"/>
<feGaussianBlur stdDeviation="3"/>
<feComposite in2="hardAlpha" operator="out"/>
<feColorMatrix type="matrix" values="0 0 0 0 0 0 0 0 0 0 0 0 0 0 0 0 0 0 0.08 0"/>
<feBlend mode="normal" in2="BackgroundImageFix" result="effect1_dropShadow_295_3657"/>
<feBlend mode="normal" in="SourceGraphic" in2="effect1_dropShadow_295_3657" result="shape"/>
</filter>
</defs>
</svg>
